<svg xmlns="http://www.w3.org/2000/svg" width="512" height="512" viewBox="0 0 512 512" version="1.1">
  <path d="M 213.633 1.521 C 174.056 9.569, 141.295 40.165, 131.252 78.456 L 129.553 84.931 92.861 85.215 L 56.169 85.500 51.843 88.542 C 38.174 98.152, 39.410 118.557, 54.115 126.059 C 57.326 127.697, 60.031 128, 71.438 128 L 84.955 128 85.228 275.250 L 85.502 422.500 88.182 432.206 C 97.714 466.720, 122.441 493.909, 155.261 505.960 C 171.059 511.761, 166.311 511.500, 256 511.500 L 338.500 511.500 347 509.203 C 357.788 506.289, 375.582 497.649, 384 491.238 C 403.607 476.308, 417.207 456.144, 423.818 432.206 L 426.498 422.500 426.772 275.250 L 427.045 128 440.562 128 C 455.937 128, 459.467 126.897, 464.803 120.423 C 472.902 110.598, 470.775 96.007, 460.157 88.542 L 455.831 85.500 419.139 85.215 L 382.447 84.931 380.748 78.456 C 371.279 42.352, 341.830 13.233, 304.175 2.741 C 297.037 0.753, 293.840 0.586, 258.500 0.363 C 229.143 0.178, 218.938 0.442, 213.633 1.521 M 224.322 44.055 C 203.751 47.663, 184.379 62.797, 176.648 81.301 L 175.102 85 256 85 L 336.898 85 335.352 81.301 C 328.767 65.539, 314.368 52.594, 296.490 46.362 C 288.518 43.583, 288.435 43.576, 259 43.362 C 242.775 43.243, 227.170 43.555, 224.322 44.055 M 128.239 271.250 C 128.585 431.151, 127.993 418.184, 135.671 434 C 140.469 443.882, 152.425 456.007, 162.500 461.207 C 177.326 468.861, 172.703 468.500, 256 468.500 C 339.285 468.500, 334.652 468.861, 349.500 461.217 C 359.454 456.092, 371.493 443.858, 376.333 433.947 C 384.004 418.239, 383.415 431.147, 383.761 271.250 L 384.071 128 256 128 L 127.929 128 128.239 271.250 M 203.309 215.533 C 200.134 217.116, 197.152 219.616, 195.363 222.197 L 192.500 226.328 192.231 297.470 L 191.961 368.612 194.307 373.056 C 195.598 375.500, 198.570 378.850, 200.913 380.500 C 204.813 383.247, 205.869 383.500, 213.422 383.500 C 220.871 383.500, 222.072 383.222, 225.802 380.637 C 228.384 378.848, 230.884 375.867, 232.467 372.691 L 235 367.607 234.978 298.554 C 234.957 233.473, 234.850 229.270, 233.104 225.500 C 227.871 214.198, 214.779 209.818, 203.309 215.533 M 289.500 214.896 C 287.300 215.914, 284.286 218.042, 282.803 219.624 C 276.822 226.002, 277 223.581, 277 298.772 L 277 367.607 279.533 372.691 C 283.277 380.204, 288.387 383.385, 297.397 383.814 C 306.499 384.247, 311.988 381.622, 316.769 374.551 L 320.038 369.716 319.769 298.022 L 319.500 226.328 316.637 222.197 C 310.966 214.015, 298.593 210.686, 289.500 214.896" stroke="none" fill="currentColor" fill-rule="evenodd"/>
  <path d="" stroke="none" fill="currentColor" fill-rule="evenodd"/>
</svg>
