<svg xmlns="http://www.w3.org/2000/svg" width="512" height="512" viewBox="0 0 512 512" version="1.1">
  <path d="M 232 57.078 C 155.625 63.960, 88.877 102.205, 37.101 168.752 C 19.017 191.995, 7.571 212.141, 2.870 229 C 0.768 236.537, 0.500 239.595, 0.500 256 C 0.500 272.341, 0.774 275.492, 2.850 283 C 11.847 315.539, 49.216 364.420, 91 398.304 C 127.229 427.684, 172.503 446.961, 221 453.655 C 238.180 456.027, 273.820 456.027, 291 453.655 C 364.144 443.558, 425.501 406.738, 474.824 343.345 C 493.904 318.822, 505.107 298.734, 509.035 282 C 510.261 276.775, 511.655 271.719, 512.132 270.764 C 513.382 268.263, 513.257 239.723, 512 240.500 C 511.447 240.842, 511 240.116, 511 238.877 C 511 234.358, 506.648 220.259, 502.524 211.421 C 497.698 201.074, 486.048 183.081, 474.899 168.752 C 425.546 105.319, 363.562 68.051, 291.500 58.481 C 276.772 56.525, 246.153 55.803, 232 57.078 M 236 100.570 C 234.625 100.804, 229.450 101.499, 224.500 102.116 C 186.792 106.816, 145.294 125.674, 113 152.784 C 87.424 174.255, 56.616 212.172, 47.910 232.893 C 41.795 247.445, 41.795 264.555, 47.910 279.107 C 53.960 293.507, 74.293 321.168, 92.942 340.370 C 140.770 389.614, 198.028 413.692, 262.500 411.671 C 282.587 411.042, 294.161 409.471, 311.339 405.042 C 366.755 390.753, 416.498 353.159, 453.494 297.606 C 466.513 278.056, 470.522 264.560, 468.196 248.111 C 466.664 237.277, 463.159 229.123, 454.089 215.289 C 413.248 152.996, 356.303 113.593, 291 102.443 C 281.979 100.902, 242.052 99.543, 236 100.570 M 237.450 150.397 C 214.185 154.836, 196.772 163.984, 180.378 180.378 C 166.215 194.541, 157.371 209.781, 152.229 228.881 C 149.908 237.502, 149.640 240.315, 149.640 256 C 149.640 271.685, 149.908 274.498, 152.229 283.119 C 162.306 320.555, 191.356 349.692, 228.571 359.693 C 237.543 362.103, 240.187 362.360, 256 362.360 C 271.813 362.360, 274.457 362.103, 283.429 359.693 C 320.607 349.702, 349.737 320.481, 359.763 283.119 C 362.043 274.623, 362.351 271.516, 362.401 256.500 C 362.465 236.965, 360.924 228.815, 354.230 213.287 C 348.797 200.685, 342.087 190.961, 331.563 180.437 C 317.173 166.047, 300.769 156.665, 281.635 151.881 C 271.097 149.246, 247.611 148.457, 237.450 150.397 M 248.378 193.130 C 225.413 195.681, 205.410 211.586, 196.314 234.526 C 193.744 241.007, 193.548 242.525, 193.537 256 C 193.526 270.026, 193.631 270.762, 196.750 278.500 C 202.635 293.107, 214.996 306.516, 228.573 313.023 C 237.675 317.385, 245.342 319.077, 256 319.077 C 266.658 319.077, 274.325 317.385, 283.427 313.023 C 297.004 306.516, 309.365 293.107, 315.250 278.500 C 318.369 270.762, 318.474 270.026, 318.463 256 C 318.452 242.533, 318.254 241.001, 315.687 234.500 C 306.947 212.365, 286.722 195.826, 265.500 193.460 C 262.750 193.153, 259.375 192.775, 258 192.620 C 256.625 192.465, 252.295 192.695, 248.378 193.130" stroke="none" fill="currentColor" fill-rule="evenodd"/>
</svg>
